<svg xmlns="http://www.w3.org/2000/svg" width="303.533" height="289.92" viewBox="0 0 303.533 289.92"><g transform="matrix(0.951, -0.309, 0.309, 0.951, -460.315, 131.957)"><path d="M1,267.568l106.86-19.653L87.247,221.2,71.015,109.47l3.162.249,83.811,68.39,7.745,15.924-.9,21.963,58.2-61.214,22.06,4.97-15.764,2.641-2.088.585-46.384,54.154,4.007,2.473,4.548,3.539,3.427,8.884L220.8,327.658l-.62,4.693L115.322,268.475l-1.278-10.869Z" transform="translate(455.064 -19.4)" fill="#f5f6fa"/><path d="M220.176,333.351a1,1,0,0,1-.52-.146L114.8,269.329a1,1,0,0,1-.473-.737l-1.164-9.9L1.088,268.564a1,1,0,0,1-.269-1.98l105.248-19.357L86.456,221.814a1,1,0,0,1-.2-.467L70.025,109.613a1,1,0,0,1,1.068-1.141l3.162.249a1,1,0,0,1,.554.222l83.811,68.39a1,1,0,0,1,.267.337l7.745,15.924a1,1,0,0,1,.1.479l-.8,19.3L222.3,154.092a1,1,0,0,1,.945-.286l22.06,4.97a1,1,0,0,1-.055,1.962l-15.711,2.632-1.744.488-45.426,53.036,3.012,1.859a1,1,0,0,1,.089.062l4.548,3.539a1,1,0,0,1,.319.429l3.427,8.884q.015.039.027.079l27.965,95.631a1,1,0,0,1,.032.412l-.62,4.693a1,1,0,0,1-.991.869ZM116.258,267.874,219.386,330.7l.391-2.962-27.894-95.389-3.312-8.586-4.286-3.335-3.961-2.445a1,1,0,0,1-.234-1.5l46.384-54.154a1,1,0,0,1,.49-.312l2.088-.585a.994.994,0,0,1,.1-.023l10.739-1.8-16.536-3.726-57.806,60.8a1,1,0,0,1-1.724-.73l.894-21.711-7.538-15.5-83.4-68.053-1.6-.126L88.2,220.8l20.452,26.5a1,1,0,0,1-.611,1.594L22.094,264.7l91.863-8.1a1,1,0,0,1,1.081.879Z" transform="translate(455.064 -19.4)" fill="#232639"/><line y1="40.23" x2="67.2" transform="translate(569.108 197.976)" fill="#f7f5eb"/><path d="M0,41.231a1,1,0,0,1-.859-.486,1,1,0,0,1,.344-1.372l67.2-40.23a1,1,0,0,1,1.372.344A1,1,0,0,1,67.714.858L.514,41.088A1,1,0,0,1,0,41.231Z" transform="translate(569.108 197.976)" fill="#232639"/><path d="M64.7,226.812a1,1,0,0,1-.681-1.733l31.2-28.989a1,1,0,0,1,.579-.262l27.367-2.8a1,1,0,0,1,.2,1.99l-27.033,2.769L65.38,226.545A1,1,0,0,1,64.7,226.812Z" transform="translate(496.623 2.575)" fill="#232639"/><path d="M57.845,236.051a1,1,0,0,1-.855-1.517l23.418-38.807a1,1,0,0,1,.935-.48l36,2.84a1,1,0,0,1-.157,1.994L81.8,197.29,58.7,235.567A1,1,0,0,1,57.845,236.051Z" transform="translate(511.262 3.154)" fill="#232639"/><line y1="2.556" x2="12.682" transform="translate(562.923 225.958)" fill="#f7f5eb"/><path d="M0,3.557a1,1,0,0,1-.979-.8A1,1,0,0,1-.2,1.576L12.485-.98A1,1,0,0,1,13.663-.2,1,1,0,0,1,12.88.98L.2,3.537A1,1,0,0,1,0,3.557Z" transform="translate(562.923 225.958)" fill="#232639"/><line x1="29.97" y2="5.614" transform="translate(667.931 140.424)" fill="#f7f5eb"/><path d="M0,6.614A1,1,0,0,1-.983,5.8a1,1,0,0,1,.8-1.167L29.786-.983a1,1,0,0,1,1.167.8,1,1,0,0,1-.8,1.167L.184,6.6A1.006,1.006,0,0,1,0,6.614Z" transform="translate(667.931 140.424)" fill="#232639"/><line x1="5.056" y1="33.822" transform="translate(536.956 114.539)" fill="#f7f5eb"/><path d="M5.055,34.823a1,1,0,0,1-.988-.852L-.989.148A1,1,0,0,1-.148-.989,1,1,0,0,1,.989-.148L6.045,33.675a1,1,0,0,1-.99,1.148Z" transform="translate(536.956 114.539)" fill="#232639"/></g></svg>