<svg xmlns="http://www.w3.org/2000/svg" width="693.775" height="193.48" viewBox="0 0 693.775 193.48"><g transform="translate(-519.288 -559.076)"><path d="M983.552,743.556a1,1,0,0,1-.01-2c3.959-.039,7.981-.144,11.955-.311a1,1,0,1,1,.084,2c-4,.168-8.039.274-12.019.313Zm-12-.077h-.023c-4-.091-8.041-.25-12.021-.472a1,1,0,0,1,.111-2c3.958.221,7.981.379,11.956.469a1,1,0,0,1-.022,2Zm35.994-.912a1,1,0,0,1-.067-2c3.973-.272,7.989-.592,11.935-.954a1,1,0,1,1,.182,1.992c-3.962.362-7.993.685-11.981.957Zm-59.949-.425q-.045,0-.09,0c-3.979-.355-8.006-.781-11.967-1.268a1,1,0,1,1,.244-1.985c3.939.484,7.943.908,11.9,1.261a1,1,0,0,1-.087,2Zm83.852-1.763a1,1,0,0,1-.113-1.994c3.955-.455,7.951-.963,11.877-1.509a1,1,0,1,1,.276,1.981c-3.942.548-7.953,1.058-11.924,1.515A1.013,1.013,0,0,1,1031.444,740.379Zm-107.668-1.163a1.008,1.008,0,0,1-.156-.012c-3.943-.619-7.932-1.313-11.855-2.064a1,1,0,0,1,.376-1.964c3.9.746,7.868,1.437,11.789,2.052a1,1,0,0,1-.154,1.988Zm131.429-2.143a1,1,0,0,1-.16-1.987c3.931-.643,7.9-1.342,11.8-2.077a1,1,0,1,1,.37,1.965c-3.916.738-7.9,1.44-11.849,2.086A1.011,1.011,0,0,1,1055.205,737.072Zm-155-2.365a1.006,1.006,0,0,1-.221-.025c-3.888-.879-7.821-1.836-11.688-2.845a1,1,0,0,1,.505-1.935c3.846,1,7.757,1.956,11.624,2.829a1,1,0,0,1-.219,1.976Zm178.579-2.081a1,1,0,0,1-.208-1.978c3.894-.833,7.826-1.725,11.687-2.651a1,1,0,0,1,.466,1.945c-3.877.93-7.825,1.825-11.735,2.662A1,1,0,0,1,1078.785,732.626Zm-201.8-3.977a1,1,0,0,1-.284-.041c-3.818-1.131-7.679-2.343-11.474-3.6a1,1,0,1,1,.63-1.9c3.775,1.252,7.615,2.458,11.413,3.583a1,1,0,0,1-.284,1.959Zm225.139-1.622a1,1,0,0,1-.257-1.967c3.845-1.024,7.726-2.109,11.536-3.226a1,1,0,1,1,.563,1.919c-3.826,1.122-7.723,2.212-11.584,3.24A1,1,0,0,1,1102.125,727.028ZM854.211,721.1a1,1,0,0,1-.345-.062c-3.737-1.374-7.514-2.83-11.226-4.329a1,1,0,1,1,.749-1.855c3.693,1.491,7.45,2.94,11.167,4.306a1,1,0,0,1-.345,1.939Zm270.942-.82a1,1,0,0,1-.305-1.953c3.788-1.215,7.61-2.494,11.36-3.8a1,1,0,1,1,.659,1.888c-3.766,1.314-7.6,2.6-11.408,3.819A1,1,0,0,1,1125.153,720.275Zm22.654-7.9a1,1,0,0,1-.353-1.936c3.722-1.405,7.476-2.877,11.157-4.375a1,1,0,1,1,.754,1.852c-3.7,1.5-7.467,2.983-11.2,4.394A1,1,0,0,1,1147.807,712.373Zm-315.844-.256a1,1,0,0,1-.4-.085c-3.643-1.6-7.324-3.291-10.94-5.015a1,1,0,0,1,.861-1.805c3.6,1.716,7.26,3.394,10.885,4.99a1,1,0,0,1-.4,1.916Zm338.079-8.791a1,1,0,0,1-.4-1.917c3.64-1.59,7.31-3.25,10.906-4.932a1,1,0,1,1,.847,1.812c-3.612,1.689-7.3,3.355-10.953,4.953A1,1,0,0,1,1170.042,703.326ZM810.3,701.788a1,1,0,0,1-.456-.111c-3.537-1.817-7.108-3.719-10.616-5.653a1,1,0,1,1,.966-1.751c3.49,1.924,7.045,3.817,10.564,5.625a1,1,0,0,1-.458,1.89Zm381.487-8.629a1,1,0,0,1-.447-1.9c3.555-1.775,7.137-3.62,10.645-5.485a1,1,0,0,1,.939,1.766c-3.523,1.872-7.12,3.726-10.69,5.508A1,1,0,0,1,1191.782,693.159Zm-402.5-2.95a1,1,0,0,1-.507-.138c-3.427-2.019-6.886-4.122-10.281-6.251a1,1,0,1,1,1.063-1.694c3.379,2.119,6.822,4.213,10.234,6.222a1,1,0,0,1-.508,1.862ZM1212.97,681.9a1,1,0,0,1-.493-1.871c3.458-1.953,6.939-3.978,10.346-6.019a1,1,0,0,1,1.028,1.716c-3.421,2.049-6.917,4.083-10.39,6.045A1,1,0,0,1,1212.97,681.9Zm-444.023-4.441a1,1,0,0,1-.553-.168c-3.31-2.2-6.648-4.491-9.921-6.8a1,1,0,1,1,1.152-1.635c3.259,2.3,6.582,4.575,9.877,6.769a1,1,0,0,1-.555,1.832Zm464.6-7.887a1,1,0,0,1-.537-1.844c3.357-2.129,6.731-4.331,10.029-6.544a1,1,0,0,1,1.114,1.661c-3.312,2.223-6.7,4.434-10.072,6.572A1,1,0,0,1,1233.551,669.569ZM749.332,663.63a1,1,0,0,1-.6-.2c-3.189-2.375-6.4-4.833-9.552-7.306a1,1,0,0,1,1.235-1.573c3.136,2.462,6.336,4.91,9.511,7.275a1,1,0,0,1-.6,1.8Zm504.146-7.432a1,1,0,0,1-.579-1.816c3.246-2.3,6.5-4.675,9.683-7.055a1,1,0,0,1,1.2,1.6c-3.193,2.39-6.464,4.774-9.724,7.086A1,1,0,0,1,1253.478,656.2ZM730.457,648.81a1,1,0,0,1-.637-.229c-3.067-2.535-6.153-5.151-9.174-7.775a1,1,0,0,1,1.312-1.51c3.008,2.614,6.082,5.219,9.136,7.743a1,1,0,0,1-.638,1.771Zm542.241-7a1,1,0,0,1-.621-1.785c3.124-2.469,6.251-5.007,9.294-7.545a1,1,0,0,1,1.281,1.536c-3.057,2.549-6.2,5.1-9.335,7.579A1,1,0,0,1,1272.7,641.807ZM712.34,633.07a1,1,0,0,1-.674-.261c-2.941-2.683-5.9-5.444-8.782-8.206a1,1,0,1,1,1.383-1.445c2.874,2.751,5.817,5.5,8.747,8.174a1,1,0,0,1-.674,1.739Zm578.783-6.634a1,1,0,0,1-.661-1.75c3-2.638,5.98-5.34,8.872-8.032a1,1,0,1,1,1.363,1.464c-2.9,2.7-5.9,5.419-8.912,8.069A1,1,0,0,1,1291.122,626.436ZM695.005,616.48a1,1,0,0,1-.708-.294c-2.818-2.828-5.64-5.729-8.389-8.622a1,1,0,0,1,1.45-1.378c2.738,2.881,5.549,5.771,8.356,8.588a1,1,0,0,1-.708,1.706Zm613.678-6.4a1,1,0,0,1-.7-1.712c2.861-2.82,5.685-5.689,8.393-8.526a1,1,0,0,1,1.447,1.381c-2.722,2.851-5.561,5.734-8.436,8.569A1,1,0,0,1,1308.684,610.083Zm-630.21-11a1,1,0,0,1-.742-.329c-2.689-2.968-5.366-6-7.959-9a1,1,0,0,1,1.514-1.306c2.582,2.994,5.249,6.011,7.927,8.967a1,1,0,0,1-.741,1.671Zm646.769-6.359a1,1,0,0,1-.746-1.666c2.76-3.091,5.382-6.144,7.795-9.074a1,1,0,0,1,1.544,1.271c-2.43,2.951-5.07,6.024-7.847,9.135A1,1,0,0,1,1325.242,592.721ZM662.8,580.9a1,1,0,0,1-.774-.366c-2.569-3.135-5.091-6.3-7.5-9.4a1,1,0,0,1,1.581-1.225c2.394,3.088,4.9,6.237,7.462,9.358a1,1,0,0,1-.773,1.634Zm-14.693-18.985a1,1,0,0,1-.81-.413c-4.49-6.185-6.832-9.858-6.855-9.895a1,1,0,0,1,1.688-1.073c.023.036,2.336,3.664,6.786,9.793a1,1,0,0,1-.808,1.588Z" transform="translate(-121 9)" fill="#202231"/><path d="M359.365,282.629a1,1,0,0,1,.91,1.415l-12.659,27.735a1,1,0,0,1-1.727.161l-17.716-25.128a1,1,0,0,1,.732-1.573l30.376-2.607Q359.323,282.629,359.365,282.629Zm-12.846,26.735,11.225-24.592-26.934,2.312Z" transform="translate(577.453 363.686)" fill="#232639"/><path d="M134.068,331.727h0a14.448,14.448,0,0,1-.359-28.892c.126,0,.248,0,.374,0a14.448,14.448,0,0,1,.36,28.892C134.315,331.726,134.193,331.727,134.068,331.727Zm.013-26.9c-.109,0-.215,0-.323,0a12.448,12.448,0,0,0,.309,24.893h0c.108,0,.213,0,.322,0a12.448,12.448,0,0,0-.309-24.893Z" transform="translate(1029.659 394.25)" fill="#232639"/></g></svg>