<svg xmlns="http://www.w3.org/2000/svg" xmlns:xlink="http://www.w3.org/1999/xlink" width="480" height="480" viewBox="0 0 480 480"><defs><clipPath id="a"><path d="M0,44.484A44.484,44.484,0,1,0,44.484,0h0A44.483,44.483,0,0,0,0,44.483H0" fill="none"/></clipPath></defs><g transform="translate(-481 -191)"><circle cx="240" cy="240" r="240" transform="translate(481 191)" fill="#e6f0fc"/><g transform="translate(579 237.517)"><g transform="translate(-44.484 -44.484)"><g clip-path="url(#a)"><path d="M77.711,52.618l1.705-1.964-1.705-1.963-1.705,1.963Z" fill="#232639"/><path d="M77.711,41.646l1.705-1.963-1.705-1.964-1.705,1.964Z" fill="#232639"/><path d="M77.711,30.675l1.705-1.964-1.705-1.964-1.705,1.964Z" fill="#232639"/><path d="M77.711,19.7l1.705-1.964-1.705-1.964-1.705,1.964Z" fill="#232639"/><path d="M77.711,8.731l1.705-1.965L77.711,4.8,76.006,6.766Z" fill="#232639"/><path d="M87.258,48.691l-1.705,1.963,1.705,1.964,1.706-1.964Z" fill="#232639"/><path d="M87.258,37.719l-1.705,1.964,1.705,1.963,1.706-1.963Z" fill="#232639"/><path d="M87.258,26.746l-1.705,1.965,1.705,1.963,1.706-1.963Z" fill="#232639"/><path d="M87.258,15.774l-1.705,1.965L87.258,19.7l1.706-1.963Z" fill="#232639"/><path d="M87.258,4.8,85.553,6.767l1.705,1.964,1.706-1.964Z" fill="#232639"/><path d="M96.805,48.691,95.1,50.654l1.705,1.964,1.712-1.964Z" fill="#232639"/><path d="M96.805,37.719,95.1,39.683l1.705,1.963,1.712-1.963Z" fill="#232639"/><path d="M96.805,26.746,95.1,28.711l1.705,1.963,1.712-1.963Z" fill="#232639"/><path d="M96.805,15.774,95.1,17.739,96.805,19.7l1.712-1.963Z" fill="#232639"/><path d="M98.515,6.767,96.809,4.8,95.1,6.767l1.705,1.965Z" fill="#232639"/><path d="M106.354,48.691l-1.7,1.963,1.7,1.964,1.706-1.964Z" fill="#232639"/><path d="M106.354,37.719l-1.7,1.964,1.7,1.963,1.706-1.963Z" fill="#232639"/><path d="M106.354,26.746l-1.7,1.965,1.7,1.963,1.706-1.963Z" fill="#232639"/><path d="M106.354,15.774l-1.7,1.965,1.7,1.963,1.706-1.963Z" fill="#232639"/><path d="M106.354,4.8l-1.7,1.965,1.7,1.964,1.706-1.964Z" fill="#232639"/><path d="M115.9,48.691l-1.706,1.963,1.706,1.964,1.705-1.964Z" fill="#232639"/><path d="M115.9,37.719l-1.706,1.964,1.706,1.963,1.705-1.963Z" fill="#232639"/><path d="M115.9,26.746l-1.706,1.965,1.706,1.963,1.705-1.963Z" fill="#232639"/><path d="M115.9,15.774l-1.706,1.965L115.9,19.7l1.705-1.963Z" fill="#232639"/><path d="M115.9,4.8l-1.706,1.965L115.9,8.731l1.705-1.964Z" fill="#232639"/><path d="M125.45,48.691l-1.712,1.963,1.712,1.964,1.705-1.964Z" fill="#232639"/><path d="M125.45,37.719l-1.712,1.964,1.712,1.963,1.705-1.963Z" fill="#232639"/><path d="M125.45,26.746l-1.712,1.965,1.712,1.963,1.705-1.963Z" fill="#232639"/><path d="M125.45,15.774l-1.712,1.965L125.45,19.7l1.705-1.963Z" fill="#232639"/><path d="M125.449,4.8l-1.7,1.965,1.7,1.964,1.706-1.964Z" fill="#232639"/><path d="M135,48.691l-1.706,1.963L135,52.618l1.705-1.964Z" fill="#232639"/><path d="M135,37.719l-1.706,1.964L135,41.646l1.705-1.963Z" fill="#232639"/><path d="M135,26.746l-1.706,1.965L135,30.674l1.705-1.963Z" fill="#232639"/><path d="M135,15.774l-1.706,1.965L135,19.7l1.705-1.963Z" fill="#232639"/><path d="M135,4.8l-1.706,1.965L135,8.731,136.7,6.767Z" fill="#232639"/><path d="M144.543,48.691l-1.705,1.963,1.705,1.964,1.712-1.964Z" fill="#232639"/><path d="M144.543,37.719l-1.705,1.964,1.705,1.963,1.712-1.963Z" fill="#232639"/><path d="M144.543,26.746l-1.705,1.965,1.705,1.963,1.712-1.963Z" fill="#232639"/><path d="M144.543,15.774l-1.705,1.965,1.705,1.963,1.712-1.963Z" fill="#232639"/><path d="M146.254,6.767,144.549,4.8l-1.706,1.965,1.706,1.965Z" fill="#232639"/><path d="M154.093,48.691l-1.706,1.963,1.706,1.964,1.705-1.964Z" fill="#232639"/><path d="M154.093,37.719l-1.706,1.964,1.706,1.963,1.705-1.963Z" fill="#232639"/><path d="M154.093,26.746l-1.706,1.965,1.706,1.963,1.705-1.963Z" fill="#232639"/><path d="M154.093,15.774l-1.706,1.965,1.706,1.963,1.705-1.963Z" fill="#232639"/><path d="M154.093,4.8l-1.706,1.965,1.706,1.964L155.8,6.767Z" fill="#232639"/><path d="M163.639,48.691l-1.705,1.963,1.705,1.964,1.706-1.964Z" fill="#232639"/><path d="M163.639,37.719l-1.705,1.964,1.705,1.963,1.706-1.963Z" fill="#232639"/><path d="M163.639,26.746l-1.705,1.965,1.705,1.963,1.706-1.963Z" fill="#232639"/><path d="M163.639,15.774l-1.705,1.965,1.705,1.963,1.706-1.963Z" fill="#232639"/><path d="M163.639,4.8l-1.705,1.965,1.705,1.964,1.706-1.964Z" fill="#232639"/><path d="M173.188,52.618l1.706-1.964-1.706-1.963-1.711,1.963Z" fill="#232639"/><path d="M173.188,41.646l1.706-1.963-1.706-1.964-1.711,1.964Z" fill="#232639"/><path d="M173.188,30.675l1.706-1.964-1.706-1.964-1.711,1.964Z" fill="#232639"/><path d="M173.188,19.7l1.706-1.964-1.706-1.964-1.711,1.964Z" fill="#232639"/><path d="M171.479,6.767l1.705,1.965,1.705-1.965L173.184,4.8Z" fill="#232639"/><path d="M182.736,48.691l-1.706,1.963,1.706,1.964,1.705-1.964Z" fill="#232639"/><path d="M182.736,37.719l-1.706,1.964,1.706,1.963,1.705-1.963Z" fill="#232639"/><path d="M182.736,26.746l-1.706,1.965,1.706,1.963,1.705-1.963Z" fill="#232639"/><path d="M182.736,15.774l-1.706,1.965,1.706,1.963,1.705-1.963Z" fill="#232639"/><path d="M182.736,4.8,181.03,6.767l1.706,1.964,1.705-1.964Z" fill="#232639"/><path d="M192.283,48.691l-1.705,1.963,1.705,1.964,1.712-1.964Z" fill="#232639"/><path d="M192.283,37.719l-1.705,1.964,1.705,1.963,1.712-1.963Z" fill="#232639"/><path d="M192.283,26.746l-1.705,1.965,1.705,1.963,1.712-1.963Z" fill="#232639"/><path d="M192.283,15.774l-1.705,1.965,1.705,1.963,1.712-1.963Z" fill="#232639"/><path d="M193.989,6.767,192.283,4.8l-1.705,1.965,1.705,1.965Z" fill="#232639"/><path d="M77.711-2.011l1.705-1.965L77.711-5.939,76.006-3.976Z" fill="#232639"/><path d="M77.711-12.983l1.705-1.965-1.705-1.963-1.705,1.963Z" fill="#232639"/><path d="M77.711-23.955l1.705-1.965-1.705-1.963L76.006-25.92Z" fill="#232639"/><path d="M77.711-34.928l1.705-1.965-1.705-1.963-1.705,1.963Z" fill="#232639"/><path d="M77.711-45.9l1.705-1.964-1.705-1.964-1.705,1.964Z" fill="#232639"/><path d="M79.419-58.836,77.714-60.8l-1.706,1.965,1.706,1.964Z" fill="#232639"/><path d="M87.258-5.94,85.553-3.976l1.705,1.964,1.706-1.964Z" fill="#232639"/><path d="M87.258-16.912l-1.705,1.964,1.705,1.964,1.706-1.964Z" fill="#232639"/><path d="M87.258-27.884,85.553-25.92l1.705,1.964,1.706-1.964Z" fill="#232639"/><path d="M87.258-38.856l-1.705,1.964,1.705,1.964,1.706-1.964Z" fill="#232639"/><path d="M87.258-49.829l-1.705,1.965L87.258-45.9l1.706-1.963Z" fill="#232639"/><path d="M87.258-60.8l-1.705,1.965,1.705,1.963,1.706-1.963Z" fill="#232639"/><path d="M96.805-5.94,95.1-3.976l1.705,1.964,1.712-1.964Z" fill="#232639"/><path d="M96.805-16.912,95.1-14.948l1.705,1.964,1.712-1.964Z" fill="#232639"/><path d="M96.805-27.884,95.1-25.92l1.705,1.964,1.712-1.964Z" fill="#232639"/><path d="M96.805-38.856,95.1-36.892l1.705,1.964,1.712-1.964Z" fill="#232639"/><path d="M96.805-49.829,95.1-47.864,96.805-45.9l1.712-1.963Z" fill="#232639"/><path d="M96.805-60.8,95.1-58.836l1.705,1.963,1.712-1.963Z" fill="#232639"/><path d="M106.354-5.94l-1.7,1.964,1.7,1.964,1.706-1.964Z" fill="#232639"/><path d="M106.354-16.912l-1.7,1.964,1.7,1.964,1.706-1.964Z" fill="#232639"/><path d="M106.354-27.884l-1.7,1.964,1.7,1.964,1.706-1.964Z" fill="#232639"/><path d="M106.354-38.856l-1.7,1.964,1.7,1.964,1.706-1.964Z" fill="#232639"/><path d="M106.354-49.829l-1.7,1.965,1.7,1.963,1.706-1.963Z" fill="#232639"/><path d="M106.354-60.8l-1.7,1.965,1.7,1.963,1.706-1.963Z" fill="#232639"/><path d="M115.9-5.94l-1.706,1.964L115.9-2.012l1.705-1.964Z" fill="#232639"/><path d="M115.9-16.912l-1.706,1.964,1.706,1.964,1.705-1.964Z" fill="#232639"/><path d="M115.9-27.884l-1.706,1.964,1.706,1.964,1.705-1.964Z" fill="#232639"/><path d="M115.9-38.856l-1.706,1.964,1.706,1.964,1.705-1.964Z" fill="#232639"/><path d="M115.9-49.829l-1.706,1.965L115.9-45.9l1.705-1.963Z" fill="#232639"/><path d="M115.9-60.8l-1.706,1.965,1.706,1.963,1.705-1.963Z" fill="#232639"/><path d="M125.45-5.94l-1.712,1.964,1.712,1.964,1.705-1.964Z" fill="#232639"/><path d="M125.45-16.912l-1.712,1.964,1.712,1.964,1.705-1.964Z" fill="#232639"/><path d="M125.45-27.884l-1.712,1.964,1.712,1.964,1.705-1.964Z" fill="#232639"/><path d="M125.45-38.856l-1.712,1.964,1.712,1.964,1.705-1.964Z" fill="#232639"/><path d="M125.45-49.829l-1.712,1.965L125.45-45.9l1.705-1.963Z" fill="#232639"/><path d="M125.45-60.8l-1.712,1.965,1.712,1.963,1.705-1.963Z" fill="#232639"/><path d="M135-5.94l-1.706,1.964L135-2.012,136.7-3.976Z" fill="#232639"/><path d="M135-16.912l-1.706,1.964L135-12.984l1.705-1.964Z" fill="#232639"/><path d="M135-27.884l-1.706,1.964L135-23.956,136.7-25.92Z" fill="#232639"/><path d="M135-38.856l-1.706,1.964L135-34.928l1.705-1.964Z" fill="#232639"/><path d="M135-49.829l-1.706,1.965L135-45.9l1.705-1.963Z" fill="#232639"/><path d="M135-60.8l-1.706,1.965L135-56.873l1.705-1.963Z" fill="#232639"/><path d="M144.543-5.94l-1.705,1.964,1.705,1.964,1.712-1.964Z" fill="#232639"/><path d="M144.543-16.912l-1.705,1.964,1.705,1.964,1.712-1.964Z" fill="#232639"/><path d="M144.543-27.884l-1.705,1.964,1.705,1.964,1.712-1.964Z" fill="#232639"/><path d="M144.543-38.856l-1.705,1.964,1.705,1.964,1.712-1.964Z" fill="#232639"/><path d="M144.543-49.829l-1.705,1.965,1.705,1.963,1.712-1.963Z" fill="#232639"/><path d="M144.544-56.869l1.629-1.869c-.782-.414-1.565-.824-2.355-1.224l-.982,1.129Z" fill="#232639"/><path d="M154.093-5.94l-1.706,1.964,1.706,1.964L155.8-3.976Z" fill="#232639"/><path d="M154.093-16.912l-1.706,1.964,1.706,1.964,1.705-1.964Z" fill="#232639"/><path d="M154.093-27.884l-1.706,1.964,1.706,1.964L155.8-25.92Z" fill="#232639"/><path d="M154.093-38.856l-1.706,1.964,1.706,1.964,1.705-1.964Z" fill="#232639"/><path d="M154.093-49.829l-1.706,1.965,1.706,1.963,1.705-1.963Z" fill="#232639"/><path d="M163.639-5.94l-1.705,1.964,1.705,1.964,1.706-1.964Z" fill="#232639"/><path d="M163.639-16.912l-1.705,1.964,1.705,1.964,1.706-1.964Z" fill="#232639"/><path d="M163.639-27.884l-1.705,1.964,1.705,1.964,1.706-1.964Z" fill="#232639"/><path d="M163.639-38.856l-1.705,1.964,1.705,1.964,1.706-1.964Z" fill="#232639"/><path d="M161.931-47.864l1.705,1.964,1.007-1.157c-.692-.516-1.391-1.021-2.091-1.526Z" fill="#232639"/><path d="M173.188-2.011l1.706-1.965-1.706-1.963-1.711,1.963Z" fill="#232639"/><path d="M173.188-12.983l1.706-1.965-1.706-1.963-1.711,1.963Z" fill="#232639"/><path d="M174.9-25.92l-1.705-1.964L171.48-25.92l1.712,1.965Z" fill="#232639"/><path d="M171.477-36.892l1.711,1.965,1.706-1.965-1.706-1.964Z" fill="#232639"/><path d="M182.736-5.94,181.03-3.976l1.706,1.964,1.705-1.964Z" fill="#232639"/><path d="M182.736-16.912l-1.706,1.964,1.706,1.964,1.705-1.964Z" fill="#232639"/><path d="M182.736-27.884,181.03-25.92l1.706,1.964,1.705-1.964Z" fill="#232639"/><path d="M192.283-5.94l-1.705,1.964,1.705,1.964,1.712-1.964Z" fill="#232639"/><path d="M192.283-16.912l-1.705,1.964,1.705,1.964,1.712-1.964Z" fill="#232639"/><path d="M201.968,48.691l-1.705,1.963,1.705,1.964,1.706-1.964Z" fill="#232639"/><path d="M201.968,37.719l-1.705,1.964,1.705,1.963,1.706-1.963Z" fill="#232639"/><path d="M201.968,26.746l-1.705,1.965,1.705,1.963,1.706-1.963Z" fill="#232639"/><path d="M201.968,15.774l-1.705,1.965,1.705,1.963,1.706-1.963Z" fill="#232639"/><path d="M201.968,4.8l-1.705,1.965,1.705,1.964,1.706-1.964Z" fill="#232639"/><path d="M211.516,48.691l-1.706,1.963,1.706,1.964,1.711-1.964Z" fill="#232639"/><path d="M211.516,37.719l-1.706,1.964,1.706,1.963,1.711-1.963Z" fill="#232639"/><path d="M211.516,26.746l-1.706,1.965,1.706,1.963,1.711-1.963Z" fill="#232639"/><path d="M209.807,17.738l1.7,1.964,1.407-1.616c-.14-.392-.275-.787-.419-1.178l-.987-1.135Z" fill="#232639"/><path d="M220.227,49.653l-.872,1,1.108,1.274q-.108-1.142-.236-2.275" fill="#232639"/><path d="M201.968-2.009l1.154-1.325q-.67-1.189-1.363-2.363l-1.5,1.723Z" fill="#232639"/><path d="M1.4,48.691-.307,50.654,1.4,52.618,3.1,50.654Z" fill="#232639"/><path d="M1.4,37.719-.307,39.683,1.4,41.646,3.1,39.683Z" fill="#232639"/><path d="M1.4,26.746-.307,28.711,1.4,30.674,3.1,28.711Z" fill="#232639"/><path d="M1.4,15.774-.307,17.739,1.4,19.7,3.1,17.739Z" fill="#232639"/><path d="M1.4,4.8-.307,6.767,1.4,8.731,3.1,6.767Z" fill="#232639"/><path d="M10.946,48.691l-1.7,1.963,1.7,1.964,1.7-1.964Z" fill="#232639"/><path d="M10.946,37.719l-1.7,1.964,1.7,1.963,1.7-1.963Z" fill="#232639"/><path d="M10.946,26.746l-1.7,1.965,1.7,1.963,1.7-1.963Z" fill="#232639"/><path d="M10.946,15.774l-1.7,1.965,1.7,1.963,1.7-1.963Z" fill="#232639"/><path d="M10.946,4.8l-1.7,1.965,1.7,1.964,1.7-1.964Z" fill="#232639"/><path d="M20.492,48.691l-1.7,1.963,1.7,1.964L22.2,50.654Z" fill="#232639"/><path d="M20.492,37.719l-1.7,1.964,1.7,1.963L22.2,39.683Z" fill="#232639"/><path d="M20.492,26.746l-1.7,1.965,1.7,1.963L22.2,28.711Z" fill="#232639"/><path d="M20.492,15.774l-1.7,1.965,1.7,1.963L22.2,17.739Z" fill="#232639"/><path d="M22.2,6.767,20.5,4.8l-1.7,1.965,1.7,1.965Z" fill="#232639"/><path d="M30.041,48.691l-1.706,1.963,1.706,1.964,1.7-1.964Z" fill="#232639"/><path d="M30.041,37.719l-1.706,1.964,1.706,1.963,1.7-1.963Z" fill="#232639"/><path d="M30.041,26.746l-1.706,1.965,1.706,1.963,1.7-1.963Z" fill="#232639"/><path d="M30.041,15.774l-1.706,1.965L30.041,19.7l1.7-1.963Z" fill="#232639"/><path d="M30.041,4.8,28.335,6.767l1.706,1.964,1.7-1.964Z" fill="#232639"/><path d="M39.592,48.691l-1.7,1.963,1.7,1.964L41.3,50.654Z" fill="#232639"/><path d="M39.592,37.719l-1.7,1.964,1.7,1.963L41.3,39.683Z" fill="#232639"/><path d="M39.592,26.746l-1.7,1.965,1.7,1.963L41.3,28.711Z" fill="#232639"/><path d="M39.592,15.774l-1.7,1.965,1.7,1.963L41.3,17.739Z" fill="#232639"/><path d="M39.592,4.8l-1.7,1.965,1.7,1.964L41.3,6.767Z" fill="#232639"/><path d="M49.137,48.691l-1.712,1.963,1.712,1.964,1.7-1.964Z" fill="#232639"/><path d="M49.137,37.719l-1.712,1.964,1.712,1.963,1.7-1.963Z" fill="#232639"/><path d="M49.137,26.746l-1.712,1.965,1.712,1.963,1.7-1.963Z" fill="#232639"/><path d="M49.137,15.774l-1.712,1.965L49.137,19.7l1.7-1.963Z" fill="#232639"/><path d="M49.137,4.8,47.431,6.767l1.706,1.964,1.7-1.964Z" fill="#232639"/><path d="M58.684,52.618l1.706-1.964-1.706-1.963-1.7,1.963Z" fill="#232639"/><path d="M58.684,41.646l1.706-1.963-1.706-1.964-1.7,1.964Z" fill="#232639"/><path d="M58.684,30.675l1.706-1.964-1.706-1.964-1.7,1.964Z" fill="#232639"/><path d="M58.684,19.7l1.706-1.964-1.706-1.964-1.7,1.964Z" fill="#232639"/><path d="M58.684,8.731,60.39,6.766,58.684,4.8l-1.7,1.964Z" fill="#232639"/><path d="M68.231,52.618l1.711-1.964-1.711-1.963-1.706,1.963Z" fill="#232639"/><path d="M68.231,41.646l1.711-1.963-1.711-1.964-1.706,1.964Z" fill="#232639"/><path d="M68.231,30.675l1.711-1.964-1.711-1.964-1.706,1.964Z" fill="#232639"/><path d="M68.231,19.7l1.711-1.964-1.711-1.964-1.706,1.964Z" fill="#232639"/><path d="M68.231,8.731l1.7-1.965L68.231,4.8,66.525,6.766Z" fill="#232639"/><path d="M1.4-5.94-.307-3.976,1.4-2.012,3.1-3.976Z" fill="#232639"/><path d="M1.4-16.912-.307-14.948,1.4-12.984,3.1-14.948Z" fill="#232639"/><path d="M1.4-27.884-.307-25.92,1.4-23.956,3.1-25.92Z" fill="#232639"/><path d="M1.4-38.856-.307-36.892,1.4-34.928,3.1-36.892Z" fill="#232639"/><path d="M1.4-49.829-.307-47.864,1.4-45.9,3.1-47.864Z" fill="#232639"/><path d="M10.946-5.94l-1.7,1.964,1.7,1.964,1.7-1.964Z" fill="#232639"/><path d="M10.946-16.912l-1.7,1.964,1.7,1.964,1.7-1.964Z" fill="#232639"/><path d="M10.946-27.884l-1.7,1.964,1.7,1.964,1.7-1.964Z" fill="#232639"/><path d="M10.946-38.856l-1.7,1.964,1.7,1.964,1.7-1.964Z" fill="#232639"/><path d="M10.946-49.829l-1.7,1.965,1.7,1.963,1.7-1.963Z" fill="#232639"/><path d="M10.946-56.872l.442-.509-.6.332Z" fill="#232639"/><path d="M20.492-5.94l-1.7,1.964,1.7,1.964L22.2-3.976Z" fill="#232639"/><path d="M20.492-16.912l-1.7,1.964,1.7,1.964L22.2-14.948Z" fill="#232639"/><path d="M20.492-27.884l-1.7,1.964,1.7,1.964L22.2-25.92Z" fill="#232639"/><path d="M20.492-38.856l-1.7,1.964,1.7,1.964L22.2-36.892Z" fill="#232639"/><path d="M20.492-49.829l-1.7,1.965,1.7,1.963L22.2-47.864Z" fill="#232639"/><path d="M20.492-60.8l-1.7,1.965,1.7,1.963L22.2-58.836Z" fill="#232639"/><path d="M30.041-5.94,28.335-3.976l1.706,1.964,1.7-1.964Z" fill="#232639"/><path d="M30.041-16.912l-1.706,1.964,1.706,1.964,1.7-1.964Z" fill="#232639"/><path d="M30.041-27.884,28.335-25.92l1.706,1.964,1.7-1.964Z" fill="#232639"/><path d="M30.041-38.856l-1.706,1.964,1.706,1.964,1.7-1.964Z" fill="#232639"/><path d="M30.041-49.829l-1.706,1.965L30.041-45.9l1.7-1.963Z" fill="#232639"/><path d="M30.041-60.8l-1.706,1.965,1.706,1.963,1.7-1.963Z" fill="#232639"/><path d="M39.592-5.94l-1.7,1.964,1.7,1.964L41.3-3.976Z" fill="#232639"/><path d="M39.592-16.912l-1.7,1.964,1.7,1.964L41.3-14.948Z" fill="#232639"/><path d="M39.592-27.884l-1.7,1.964,1.7,1.964L41.3-25.92Z" fill="#232639"/><path d="M39.592-38.856l-1.7,1.964,1.7,1.964L41.3-36.892Z" fill="#232639"/><path d="M39.592-49.829l-1.7,1.965,1.7,1.963L41.3-47.864Z" fill="#232639"/><path d="M39.592-60.8l-1.7,1.965,1.7,1.963L41.3-58.836Z" fill="#232639"/><path d="M49.137-5.94,47.425-3.976l1.712,1.964,1.7-1.964Z" fill="#232639"/><path d="M49.137-16.912l-1.712,1.964,1.712,1.964,1.7-1.964Z" fill="#232639"/><path d="M49.137-27.884,47.425-25.92l1.712,1.964,1.7-1.964Z" fill="#232639"/><path d="M49.137-38.856l-1.712,1.964,1.712,1.964,1.7-1.964Z" fill="#232639"/><path d="M49.137-49.829l-1.712,1.965L49.137-45.9l1.7-1.963Z" fill="#232639"/><path d="M49.137-60.8l-1.712,1.965,1.712,1.963,1.7-1.963Z" fill="#232639"/><path d="M58.684-2.011,60.39-3.976,58.684-5.939l-1.7,1.963Z" fill="#232639"/><path d="M58.684-12.983l1.706-1.965-1.706-1.963-1.7,1.963Z" fill="#232639"/><path d="M58.684-23.955,60.39-25.92l-1.706-1.963-1.7,1.963Z" fill="#232639"/><path d="M58.684-34.928l1.706-1.965-1.706-1.963-1.7,1.963Z" fill="#232639"/><path d="M58.684-45.9l1.706-1.964-1.706-1.964-1.7,1.964Z" fill="#232639"/><path d="M58.684-56.872l1.706-1.964L58.684-60.8l-1.7,1.964Z" fill="#232639"/><path d="M68.231-2.011l1.711-1.965L68.231-5.94,66.525-3.977Z" fill="#232639"/><path d="M68.231-12.983l1.711-1.965-1.711-1.963-1.706,1.963Z" fill="#232639"/><path d="M68.231-23.955l1.711-1.965-1.711-1.964-1.706,1.963Z" fill="#232639"/><path d="M68.231-34.928l1.711-1.965-1.711-1.963-1.706,1.963Z" fill="#232639"/><path d="M68.231-45.9l1.711-1.964-1.711-1.965-1.706,1.964Z" fill="#232639"/><path d="M68.231-56.872l1.711-1.964L68.231-60.8l-1.706,1.964Z" fill="#232639"/><path d="M77.711,194.345l1.705-1.965-1.705-1.963-1.705,1.963Z" fill="#232639"/><path d="M77.711,183.372l1.705-1.965-1.705-1.963-1.705,1.963Z" fill="#232639"/><path d="M77.711,172.4l1.705-1.964-1.705-1.963-1.705,1.963Z" fill="#232639"/><path d="M77.711,161.428l1.705-1.964L77.711,157.5l-1.705,1.963Z" fill="#232639"/><path d="M77.711,150.456l1.705-1.963-1.705-1.964-1.705,1.964Z" fill="#232639"/><path d="M85.55,192.38l1.706,1.965,1.705-1.965-1.705-1.964Z" fill="#232639"/><path d="M87.258,179.444l-1.705,1.963,1.705,1.964,1.706-1.964Z" fill="#232639"/><path d="M87.258,168.472l-1.705,1.964,1.705,1.963,1.706-1.963Z" fill="#232639"/><path d="M87.258,157.5l-1.705,1.964,1.705,1.963,1.706-1.963Z" fill="#232639"/><path d="M87.258,146.528l-1.705,1.965,1.705,1.963,1.706-1.963Z" fill="#232639"/><path d="M95.1,192.38l1.705,1.965,1.712-1.965L96.8,190.416Z" fill="#232639"/><path d="M96.805,179.444,95.1,181.407l1.705,1.964,1.712-1.964Z" fill="#232639"/><path d="M96.805,168.472,95.1,170.436l1.705,1.963,1.712-1.963Z" fill="#232639"/><path d="M96.805,157.5,95.1,159.464l1.705,1.963,1.712-1.963Z" fill="#232639"/><path d="M96.805,146.528,95.1,148.493l1.705,1.963,1.712-1.963Z" fill="#232639"/><path d="M104.646,192.38l1.706,1.965,1.705-1.965-1.705-1.964Z" fill="#232639"/><path d="M106.354,179.444l-1.7,1.963,1.7,1.964,1.706-1.964Z" fill="#232639"/><path d="M106.354,168.472l-1.7,1.964,1.7,1.963,1.706-1.963Z" fill="#232639"/><path d="M106.354,157.5l-1.7,1.964,1.7,1.963,1.706-1.963Z" fill="#232639"/><path d="M106.354,146.528l-1.7,1.965,1.7,1.963,1.706-1.963Z" fill="#232639"/><path d="M114.193,192.38l1.705,1.965,1.706-1.965-1.706-1.964Z" fill="#232639"/><path d="M115.9,179.444l-1.706,1.963,1.706,1.964,1.705-1.964Z" fill="#232639"/><path d="M115.9,168.472l-1.706,1.964L115.9,172.4l1.705-1.963Z" fill="#232639"/><path d="M115.9,157.5l-1.706,1.964,1.706,1.963,1.705-1.963Z" fill="#232639"/><path d="M115.9,146.528l-1.706,1.965,1.706,1.963,1.705-1.963Z" fill="#232639"/><path d="M123.738,192.38l1.712,1.965,1.705-1.965-1.705-1.964Z" fill="#232639"/><path d="M125.45,179.444l-1.712,1.963,1.712,1.964,1.705-1.964Z" fill="#232639"/><path d="M125.45,168.472l-1.712,1.964,1.712,1.963,1.705-1.963Z" fill="#232639"/><path d="M125.45,157.5l-1.712,1.964,1.712,1.963,1.705-1.963Z" fill="#232639"/><path d="M125.45,146.528l-1.712,1.965,1.712,1.963,1.705-1.963Z" fill="#232639"/><path d="M133.289,192.38l1.705,1.965,1.705-1.965-1.705-1.964Z" fill="#232639"/><path d="M135,179.444l-1.706,1.963L135,183.371l1.705-1.964Z" fill="#232639"/><path d="M135,168.472l-1.706,1.964L135,172.4l1.705-1.963Z" fill="#232639"/><path d="M135,157.5l-1.706,1.964L135,161.427l1.705-1.963Z" fill="#232639"/><path d="M135,146.528l-1.706,1.965L135,150.456l1.705-1.963Z" fill="#232639"/><path d="M142.835,181.407l1.706,1.965,1.711-1.965-1.711-1.963Z" fill="#232639"/><path d="M144.543,168.472l-1.705,1.964,1.705,1.963,1.712-1.963Z" fill="#232639"/><path d="M144.543,157.5l-1.705,1.964,1.705,1.963,1.712-1.963Z" fill="#232639"/><path d="M144.543,146.528l-1.705,1.965,1.705,1.963,1.712-1.963Z" fill="#232639"/><path d="M152.384,181.407l1.706,1.965,1.705-1.965-1.705-1.963Z" fill="#232639"/><path d="M154.093,168.472l-1.706,1.964,1.706,1.963,1.705-1.963Z" fill="#232639"/><path d="M154.093,157.5l-1.706,1.964,1.706,1.963,1.705-1.963Z" fill="#232639"/><path d="M154.093,146.528l-1.706,1.965,1.706,1.963,1.705-1.963Z" fill="#232639"/><path d="M161.931,170.436l1.705,1.964,1.706-1.964-1.706-1.964Z" fill="#232639"/><path d="M163.639,157.5l-1.705,1.964,1.705,1.963,1.706-1.963Z" fill="#232639"/><path d="M163.639,146.528l-1.705,1.965,1.705,1.963,1.706-1.963Z" fill="#232639"/><path d="M173.189,168.472l-1.711,1.964.863.988c.652-.562,1.293-1.134,1.933-1.706Z" fill="#232639"/><path d="M173.188,161.428l1.706-1.964-1.706-1.963-1.711,1.963Z" fill="#232639"/><path d="M173.188,150.456l1.706-1.963-1.706-1.964-1.711,1.964Z" fill="#232639"/><path d="M184.444,159.464l-1.705-1.964-1.706,1.964,1.706,1.964Z" fill="#232639"/><path d="M181.027,148.493l1.705,1.963,1.706-1.963-1.706-1.965Z" fill="#232639"/><path d="M192.283,146.528l-1.705,1.965,1.642,1.884q.807-1.046,1.587-2.107Z" fill="#232639"/><path d="M77.711,139.714l1.705-1.964-1.705-1.964-1.705,1.964Z" fill="#232639"/><path d="M77.711,128.742l1.705-1.964-1.705-1.963-1.705,1.963Z" fill="#232639"/><path d="M77.711,117.77l1.705-1.964-1.705-1.963-1.705,1.963Z" fill="#232639"/><path d="M77.711,106.8l1.705-1.965-1.705-1.963-1.705,1.963Z" fill="#232639"/><path d="M77.711,95.826l1.705-1.965L77.711,91.9l-1.705,1.963Z" fill="#232639"/><path d="M77.711,84.854l1.705-1.965-1.705-1.963-1.705,1.963Z" fill="#232639"/><path d="M77.711,73.882l1.705-1.964-1.705-1.964-1.705,1.964Z" fill="#232639"/><path d="M77.711,62.909l1.705-1.964-1.705-1.964-1.705,1.964Z" fill="#232639"/><path d="M87.258,135.785l-1.705,1.965,1.705,1.963,1.706-1.963Z" fill="#232639"/><path d="M87.258,124.814l-1.705,1.964,1.705,1.964,1.706-1.964Z" fill="#232639"/><path d="M87.258,113.842l-1.705,1.964,1.705,1.964,1.706-1.964Z" fill="#232639"/><path d="M87.258,102.869l-1.705,1.964,1.705,1.964,1.706-1.964Z" fill="#232639"/><path d="M87.258,91.9l-1.705,1.964,1.705,1.964,1.706-1.964Z" fill="#232639"/><path d="M87.258,80.926,85.553,82.89l1.705,1.964,1.706-1.964Z" fill="#232639"/><path d="M87.258,69.954l-1.705,1.965,1.705,1.963,1.706-1.963Z" fill="#232639"/><path d="M87.258,58.981l-1.705,1.965,1.705,1.963,1.706-1.963Z" fill="#232639"/><path d="M98.515,137.75l-1.706-1.965L95.1,137.75l1.705,1.964Z" fill="#232639"/><path d="M96.805,124.814,95.1,126.778l1.705,1.964,1.712-1.964Z" fill="#232639"/><path d="M96.805,113.842,95.1,115.806l1.705,1.964,1.712-1.964Z" fill="#232639"/><path d="M96.805,102.869,95.1,104.833l1.705,1.964,1.712-1.964Z" fill="#232639"/><path d="M96.805,91.9,95.1,93.861l1.705,1.964,1.712-1.964Z" fill="#232639"/><path d="M96.805,80.926,95.1,82.89l1.705,1.964,1.712-1.964Z" fill="#232639"/><path d="M96.805,69.954,95.1,71.919l1.705,1.963,1.712-1.963Z" fill="#232639"/><path d="M96.805,58.981,95.1,60.946l1.705,1.963,1.712-1.963Z" fill="#232639"/><path d="M106.354,135.785l-1.7,1.965,1.7,1.963,1.706-1.963Z" fill="#232639"/><path d="M106.354,124.814l-1.7,1.964,1.7,1.964,1.706-1.964Z" fill="#232639"/><path d="M106.354,113.842l-1.7,1.964,1.7,1.964,1.706-1.964Z" fill="#232639"/><path d="M106.354,102.869l-1.7,1.964,1.7,1.964,1.706-1.964Z" fill="#232639"/><path d="M106.354,91.9l-1.7,1.964,1.7,1.964,1.706-1.964Z" fill="#232639"/><path d="M106.354,80.926l-1.7,1.964,1.7,1.964,1.706-1.964Z" fill="#232639"/><path d="M106.354,69.954l-1.7,1.965,1.7,1.963,1.706-1.963Z" fill="#232639"/><path d="M106.354,58.981l-1.7,1.965,1.7,1.963,1.706-1.963Z" fill="#232639"/><path d="M115.9,135.785l-1.706,1.965,1.706,1.963,1.705-1.963Z" fill="#232639"/><path d="M115.9,124.814l-1.706,1.964,1.706,1.964,1.705-1.964Z" fill="#232639"/><path d="M115.9,113.842l-1.706,1.964,1.706,1.964,1.705-1.964Z" fill="#232639"/><path d="M115.9,102.869l-1.706,1.964L115.9,106.8l1.705-1.964Z" fill="#232639"/><path d="M115.9,91.9l-1.706,1.964,1.706,1.964,1.705-1.964Z" fill="#232639"/><path d="M115.9,80.926l-1.706,1.964,1.706,1.964,1.705-1.964Z" fill="#232639"/><path d="M115.9,69.954l-1.706,1.965,1.706,1.963,1.705-1.963Z" fill="#232639"/><path d="M115.9,58.981l-1.706,1.965,1.706,1.963,1.705-1.963Z" fill="#232639"/><path d="M125.449,135.785l-1.7,1.965,1.7,1.963,1.706-1.963Z" fill="#232639"/><path d="M125.45,124.814l-1.712,1.964,1.712,1.964,1.705-1.964Z" fill="#232639"/><path d="M125.45,113.842l-1.712,1.964,1.712,1.964,1.705-1.964Z" fill="#232639"/><path d="M125.45,102.869l-1.712,1.964,1.712,1.964,1.705-1.964Z" fill="#232639"/><path d="M125.45,91.9l-1.712,1.964,1.712,1.964,1.705-1.964Z" fill="#232639"/><path d="M125.45,80.926l-1.712,1.964,1.712,1.964,1.705-1.964Z" fill="#232639"/><path d="M125.45,69.954l-1.712,1.965,1.712,1.963,1.705-1.963Z" fill="#232639"/><path d="M125.45,58.981l-1.712,1.965,1.712,1.963,1.705-1.963Z" fill="#232639"/><path d="M135,135.785l-1.706,1.965L135,139.713l1.705-1.963Z" fill="#232639"/><path d="M135,124.814l-1.706,1.964L135,128.742l1.705-1.964Z" fill="#232639"/><path d="M135,113.842l-1.706,1.964L135,117.77l1.705-1.964Z" fill="#232639"/><path d="M135,102.869l-1.706,1.964L135,106.8l1.705-1.964Z" fill="#232639"/><path d="M135,91.9l-1.706,1.964L135,95.825l1.705-1.964Z" fill="#232639"/><path d="M135,80.926l-1.706,1.964L135,84.854,136.7,82.89Z" fill="#232639"/><path d="M135,69.954l-1.706,1.965L135,73.882l1.705-1.963Z" fill="#232639"/><path d="M135,58.981l-1.706,1.965L135,62.909l1.705-1.963Z" fill="#232639"/><path d="M146.254,137.75l-1.705-1.965-1.706,1.965,1.706,1.964Z" fill="#232639"/><path d="M144.543,124.814l-1.705,1.964,1.705,1.964,1.712-1.964Z" fill="#232639"/><path d="M144.543,113.842l-1.705,1.964,1.705,1.964,1.712-1.964Z" fill="#232639"/><path d="M144.543,102.869l-1.705,1.964,1.705,1.964,1.712-1.964Z" fill="#232639"/><path d="M144.543,91.9l-1.705,1.964,1.705,1.964,1.712-1.964Z" fill="#232639"/><path d="M144.543,80.926l-1.705,1.964,1.705,1.964,1.712-1.964Z" fill="#232639"/><path d="M144.543,69.954l-1.705,1.965,1.705,1.963,1.712-1.963Z" fill="#232639"/><path d="M144.543,58.981l-1.705,1.965,1.705,1.963,1.712-1.963Z" fill="#232639"/><path d="M154.093,135.785l-1.706,1.965,1.706,1.963,1.705-1.963Z" fill="#232639"/><path d="M154.093,124.814l-1.706,1.964,1.706,1.964,1.705-1.964Z" fill="#232639"/><path d="M154.093,113.842l-1.706,1.964,1.706,1.964,1.705-1.964Z" fill="#232639"/><path d="M154.093,102.869l-1.706,1.964,1.706,1.964,1.705-1.964Z" fill="#232639"/><path d="M154.093,91.9l-1.706,1.964,1.706,1.964,1.705-1.964Z" fill="#232639"/><path d="M154.093,80.926l-1.706,1.964,1.706,1.964L155.8,82.89Z" fill="#232639"/><path d="M154.093,69.954l-1.706,1.965,1.706,1.963,1.705-1.963Z" fill="#232639"/><path d="M154.093,58.981l-1.706,1.965,1.706,1.963,1.705-1.963Z" fill="#232639"/><path d="M163.639,135.785l-1.705,1.965,1.705,1.963,1.706-1.963Z" fill="#232639"/><path d="M163.639,124.814l-1.705,1.964,1.705,1.964,1.706-1.964Z" fill="#232639"/><path d="M163.639,113.842l-1.705,1.964,1.705,1.964,1.706-1.964Z" fill="#232639"/><path d="M163.639,102.869l-1.705,1.964,1.705,1.964,1.706-1.964Z" fill="#232639"/><path d="M163.639,91.9l-1.705,1.964,1.705,1.964,1.706-1.964Z" fill="#232639"/><path d="M163.639,80.926l-1.705,1.964,1.705,1.964,1.706-1.964Z" fill="#232639"/><path d="M163.639,69.954l-1.705,1.965,1.705,1.963,1.706-1.963Z" fill="#232639"/><path d="M163.639,58.981l-1.705,1.965,1.705,1.963,1.706-1.963Z" fill="#232639"/><path d="M171.479,137.75l1.705,1.964,1.705-1.964-1.705-1.965Z" fill="#232639"/><path d="M173.188,128.742l1.706-1.964-1.706-1.963-1.711,1.963Z" fill="#232639"/><path d="M173.188,117.77l1.706-1.964-1.706-1.963-1.711,1.963Z" fill="#232639"/><path d="M173.188,106.8l1.706-1.965-1.706-1.963-1.711,1.963Z" fill="#232639"/><path d="M173.188,95.826l1.706-1.965L173.188,91.9l-1.711,1.963Z" fill="#232639"/><path d="M173.188,84.854l1.706-1.965-1.706-1.963-1.711,1.963Z" fill="#232639"/><path d="M173.188,73.882l1.706-1.964-1.706-1.964-1.711,1.964Z" fill="#232639"/><path d="M173.188,62.909l1.706-1.964-1.706-1.964-1.711,1.964Z" fill="#232639"/><path d="M182.736,135.785l-1.706,1.965,1.706,1.963,1.705-1.963Z" fill="#232639"/><path d="M182.736,124.814l-1.706,1.964,1.706,1.964,1.705-1.964Z" fill="#232639"/><path d="M182.736,113.842l-1.706,1.964,1.706,1.964,1.705-1.964Z" fill="#232639"/><path d="M182.736,102.869l-1.706,1.964,1.706,1.964,1.705-1.964Z" fill="#232639"/><path d="M182.736,91.9l-1.706,1.964,1.706,1.964,1.705-1.964Z" fill="#232639"/><path d="M182.736,80.926,181.03,82.89l1.706,1.964,1.705-1.964Z" fill="#232639"/><path d="M182.736,69.954l-1.706,1.965,1.706,1.963,1.705-1.963Z" fill="#232639"/><path d="M182.736,58.981l-1.706,1.965,1.706,1.963,1.705-1.963Z" fill="#232639"/><path d="M190.578,137.75l1.705,1.964,1.706-1.964-1.706-1.965Z" fill="#232639"/><path d="M192.283,124.814l-1.705,1.964,1.705,1.964,1.712-1.964Z" fill="#232639"/><path d="M192.283,113.842l-1.705,1.964,1.705,1.964,1.712-1.964Z" fill="#232639"/><path d="M192.283,102.869l-1.705,1.964,1.705,1.964,1.712-1.964Z" fill="#232639"/><path d="M192.283,91.9l-1.705,1.964,1.705,1.964,1.712-1.964Z" fill="#232639"/><path d="M192.283,80.926l-1.705,1.964,1.705,1.964,1.712-1.964Z" fill="#232639"/><path d="M192.283,69.954l-1.705,1.965,1.705,1.963,1.712-1.963Z" fill="#232639"/><path d="M192.283,58.981l-1.705,1.965,1.705,1.963,1.712-1.963Z" fill="#232639"/><path d="M201.968,135.785l-1.705,1.965.359.41c.472-.772.931-1.551,1.389-2.334Z" fill="#232639"/><path d="M200.256,126.782l1.706,1.965,1.705-1.965-1.705-1.964Z" fill="#232639"/><path d="M201.968,113.842l-1.705,1.964,1.705,1.964,1.706-1.964Z" fill="#232639"/><path d="M201.968,102.869l-1.705,1.964,1.705,1.964,1.706-1.964Z" fill="#232639"/><path d="M201.968,91.9l-1.705,1.964,1.705,1.964,1.706-1.964Z" fill="#232639"/><path d="M201.968,80.926l-1.705,1.964,1.705,1.964,1.706-1.964Z" fill="#232639"/><path d="M201.968,69.954l-1.705,1.965,1.705,1.963,1.706-1.963Z" fill="#232639"/><path d="M201.968,58.981l-1.705,1.965,1.705,1.963,1.706-1.963Z" fill="#232639"/><path d="M211.516,113.842l-1.706,1.964,1.287,1.48q.538-1.352,1.054-2.719Z" fill="#232639"/><path d="M209.807,104.837l1.7,1.965,1.712-1.965-1.712-1.964Z" fill="#232639"/><path d="M211.516,91.9l-1.706,1.964,1.706,1.964,1.711-1.964Z" fill="#232639"/><path d="M211.516,80.926,209.81,82.89l1.706,1.964,1.711-1.964Z" fill="#232639"/><path d="M211.516,69.954l-1.706,1.965,1.706,1.963,1.711-1.963Z" fill="#232639"/><path d="M211.516,58.981l-1.706,1.965,1.706,1.963,1.711-1.963Z" fill="#232639"/><path d="M219.355,82.889l.558.643c.066-.5.122-1,.18-1.493Z" fill="#232639"/><path d="M219.355,71.918l1.489,1.713q.106-1.8.168-3.618Z" fill="#232639"/><path d="M219.355,60.946l1.705,1.964.007-.008q-.033-1.905-.113-3.8Z" fill="#232639"/><path d="M1.4,179.444l-1.3,1.5q1.071.735,2.154,1.449l.854-.981Z" fill="#232639"/><path d="M-.311,170.436,1.395,172.4l1.7-1.964-1.7-1.964Z" fill="#232639"/><path d="M1.4,157.5l-1.705,1.964L1.4,161.427,3.1,159.464Z" fill="#232639"/><path d="M1.4,146.528l-1.705,1.965L1.4,150.456,3.1,148.493Z" fill="#232639"/><path d="M9.237,181.407l1.7,1.965,1.706-1.965-1.706-1.963Z" fill="#232639"/><path d="M10.946,168.472l-1.7,1.964,1.7,1.963,1.7-1.963Z" fill="#232639"/><path d="M10.946,157.5l-1.7,1.964,1.7,1.963,1.7-1.963Z" fill="#232639"/><path d="M10.946,146.528l-1.7,1.965,1.7,1.963,1.7-1.963Z" fill="#232639"/><path d="M20.492,190.416l-1.326,1.526q1.209.577,2.435,1.132l.6-.693Z" fill="#232639"/><path d="M18.783,181.407l1.706,1.965,1.712-1.965-1.712-1.963Z" fill="#232639"/><path d="M20.492,168.472l-1.7,1.964,1.7,1.963,1.712-1.963Z" fill="#232639"/><path d="M20.492,157.5l-1.7,1.964,1.7,1.963,1.712-1.963Z" fill="#232639"/><path d="M20.492,146.528l-1.7,1.965,1.7,1.963,1.712-1.963Z" fill="#232639"/><path d="M28.332,192.38l1.7,1.965,1.706-1.965-1.706-1.964Z" fill="#232639"/><path d="M30.041,179.444l-1.706,1.963,1.706,1.964,1.7-1.964Z" fill="#232639"/><path d="M30.041,168.472l-1.706,1.964,1.706,1.963,1.7-1.963Z" fill="#232639"/><path d="M30.041,157.5l-1.706,1.964,1.706,1.963,1.7-1.963Z" fill="#232639"/><path d="M30.041,146.528l-1.706,1.965,1.706,1.963,1.7-1.963Z" fill="#232639"/><path d="M37.879,192.38l1.706,1.965,1.705-1.965-1.705-1.964Z" fill="#232639"/><path d="M39.592,179.444l-1.7,1.963,1.7,1.964,1.705-1.964Z" fill="#232639"/><path d="M39.592,168.472l-1.7,1.964,1.7,1.963,1.705-1.963Z" fill="#232639"/><path d="M39.592,157.5l-1.7,1.964,1.7,1.963,1.705-1.963Z" fill="#232639"/><path d="M39.592,146.528l-1.7,1.965,1.7,1.963,1.705-1.963Z" fill="#232639"/><path d="M47.425,192.38l1.712,1.965,1.7-1.965-1.7-1.964Z" fill="#232639"/><path d="M49.137,179.444l-1.712,1.963,1.712,1.964,1.7-1.964Z" fill="#232639"/><path d="M49.137,168.472l-1.712,1.964,1.712,1.963,1.7-1.963Z" fill="#232639"/><path d="M49.137,157.5l-1.712,1.964,1.712,1.963,1.7-1.963Z" fill="#232639"/><path d="M49.137,146.528l-1.712,1.965,1.712,1.963,1.7-1.963Z" fill="#232639"/><path d="M58.684,194.345l1.706-1.965-1.706-1.963-1.7,1.963Z" fill="#232639"/><path d="M58.684,183.372l1.706-1.965-1.706-1.963-1.7,1.963Z" fill="#232639"/><path d="M58.684,172.4l1.706-1.964-1.706-1.963-1.7,1.963Z" fill="#232639"/><path d="M58.684,161.428l1.706-1.964L58.684,157.5l-1.7,1.963Z" fill="#232639"/><path d="M58.684,150.456l1.706-1.963-1.706-1.964-1.7,1.964Z" fill="#232639"/><path d="M68.231,194.345l1.711-1.965-1.711-1.963-1.706,1.963Z" fill="#232639"/><path d="M68.231,183.372l1.711-1.965-1.711-1.963-1.706,1.963Z" fill="#232639"/><path d="M68.231,172.4l1.711-1.964-1.711-1.963-1.706,1.963Z" fill="#232639"/><path d="M68.231,161.428l1.711-1.964L68.231,157.5l-1.706,1.963Z" fill="#232639"/><path d="M68.231,150.456l1.711-1.963-1.711-1.964-1.706,1.964Z" fill="#232639"/><path d="M1.4,135.785-.307,137.75,1.4,139.713,3.1,137.75Z" fill="#232639"/><path d="M1.4,124.814l-1.705,1.964L1.4,128.742,3.1,126.778Z" fill="#232639"/><path d="M1.4,113.842l-1.705,1.964L1.4,117.77,3.1,115.806Z" fill="#232639"/><path d="M1.4,102.869l-1.705,1.964L1.4,106.8,3.1,104.833Z" fill="#232639"/><path d="M1.4,91.9-.307,93.861,1.4,95.825,3.1,93.861Z" fill="#232639"/><path d="M1.4,80.926-.307,82.89,1.4,84.854,3.1,82.89Z" fill="#232639"/><path d="M1.4,69.954-.307,71.919,1.4,73.882,3.1,71.919Z" fill="#232639"/><path d="M1.4,58.981-.307,60.946,1.4,62.909,3.1,60.946Z" fill="#232639"/><path d="M10.946,135.785l-1.7,1.965,1.7,1.963,1.7-1.963Z" fill="#232639"/><path d="M10.946,124.814l-1.7,1.964,1.7,1.964,1.7-1.964Z" fill="#232639"/><path d="M10.946,113.842l-1.7,1.964,1.7,1.964,1.7-1.964Z" fill="#232639"/><path d="M10.946,102.869l-1.7,1.964,1.7,1.964,1.7-1.964Z" fill="#232639"/><path d="M10.946,91.9l-1.7,1.964,1.7,1.964,1.7-1.964Z" fill="#232639"/><path d="M10.946,80.926l-1.7,1.964,1.7,1.964,1.7-1.964Z" fill="#232639"/><path d="M10.946,69.954l-1.7,1.965,1.7,1.963,1.7-1.963Z" fill="#232639"/><path d="M10.946,58.981l-1.7,1.965,1.7,1.963,1.7-1.963Z" fill="#232639"/><path d="M22.2,137.75l-1.7-1.965-1.7,1.965,1.7,1.964Z" fill="#232639"/><path d="M20.492,124.814l-1.7,1.964,1.7,1.964,1.712-1.964Z" fill="#232639"/><path d="M20.492,113.842l-1.7,1.964,1.7,1.964,1.712-1.964Z" fill="#232639"/><path d="M20.492,102.869l-1.7,1.964,1.7,1.964,1.712-1.964Z" fill="#232639"/><path d="M20.492,91.9l-1.7,1.964,1.7,1.964L22.2,93.861Z" fill="#232639"/><path d="M20.492,80.926l-1.7,1.964,1.7,1.964L22.2,82.89Z" fill="#232639"/><path d="M20.492,69.954l-1.7,1.965,1.7,1.963L22.2,71.919Z" fill="#232639"/><path d="M20.492,58.981l-1.7,1.965,1.7,1.963L22.2,60.946Z" fill="#232639"/><path d="M30.041,135.785l-1.706,1.965,1.706,1.963,1.7-1.963Z" fill="#232639"/><path d="M30.041,124.814l-1.706,1.964,1.706,1.964,1.7-1.964Z" fill="#232639"/><path d="M30.041,113.842l-1.706,1.964,1.706,1.964,1.7-1.964Z" fill="#232639"/><path d="M30.041,102.869l-1.706,1.964,1.706,1.964,1.7-1.964Z" fill="#232639"/><path d="M30.041,91.9l-1.706,1.964,1.706,1.964,1.7-1.964Z" fill="#232639"/><path d="M30.041,80.926,28.335,82.89l1.706,1.964,1.7-1.964Z" fill="#232639"/><path d="M30.041,69.954l-1.706,1.965,1.706,1.963,1.7-1.963Z" fill="#232639"/><path d="M30.041,58.981l-1.706,1.965,1.706,1.963,1.7-1.963Z" fill="#232639"/><path d="M39.592,135.785l-1.7,1.965,1.7,1.963L41.3,137.75Z" fill="#232639"/><path d="M39.592,124.814l-1.7,1.964,1.7,1.964,1.705-1.964Z" fill="#232639"/><path d="M39.592,113.842l-1.7,1.964,1.7,1.964,1.705-1.964Z" fill="#232639"/><path d="M39.592,102.869l-1.7,1.964,1.7,1.964,1.705-1.964Z" fill="#232639"/><path d="M39.592,91.9l-1.7,1.964,1.7,1.964L41.3,93.861Z" fill="#232639"/><path d="M39.592,80.926l-1.7,1.964,1.7,1.964L41.3,82.89Z" fill="#232639"/><path d="M39.592,69.954l-1.7,1.965,1.7,1.963L41.3,71.919Z" fill="#232639"/><path d="M39.592,58.981l-1.7,1.965,1.7,1.963L41.3,60.946Z" fill="#232639"/><path d="M49.137,135.785l-1.706,1.965,1.706,1.963,1.7-1.963Z" fill="#232639"/><path d="M49.137,124.814l-1.712,1.964,1.712,1.964,1.7-1.964Z" fill="#232639"/><path d="M49.137,113.842l-1.712,1.964,1.712,1.964,1.7-1.964Z" fill="#232639"/><path d="M49.137,102.869l-1.712,1.964,1.712,1.964,1.7-1.964Z" fill="#232639"/><path d="M49.137,91.9l-1.712,1.964,1.712,1.964,1.7-1.964Z" fill="#232639"/><path d="M49.137,80.926,47.425,82.89l1.712,1.964,1.7-1.964Z" fill="#232639"/><path d="M49.137,69.954l-1.712,1.965,1.712,1.963,1.7-1.963Z" fill="#232639"/><path d="M49.137,58.981l-1.712,1.965,1.712,1.963,1.7-1.963Z" fill="#232639"/><path d="M58.684,139.714l1.706-1.964-1.706-1.964-1.7,1.964Z" fill="#232639"/><path d="M58.684,128.742l1.706-1.964-1.706-1.963-1.7,1.963Z" fill="#232639"/><path d="M58.684,117.77l1.706-1.964-1.706-1.963-1.7,1.963Z" fill="#232639"/><path d="M58.684,106.8l1.706-1.965-1.706-1.963-1.7,1.963Z" fill="#232639"/><path d="M58.684,95.826l1.706-1.965L58.684,91.9l-1.7,1.963Z" fill="#232639"/><path d="M58.684,84.854l1.706-1.965-1.706-1.963-1.7,1.963Z" fill="#232639"/><path d="M58.684,73.882l1.706-1.964-1.706-1.964-1.7,1.964Z" fill="#232639"/><path d="M58.684,62.909l1.706-1.964-1.706-1.964-1.7,1.964Z" fill="#232639"/><path d="M68.231,139.714l1.7-1.964-1.7-1.964-1.706,1.964Z" fill="#232639"/><path d="M68.231,128.742l1.711-1.964-1.711-1.963-1.706,1.963Z" fill="#232639"/><path d="M68.231,117.77l1.711-1.964-1.711-1.963-1.706,1.963Z" fill="#232639"/><path d="M68.231,106.8l1.711-1.965-1.711-1.963-1.706,1.963Z" fill="#232639"/><path d="M68.231,95.826l1.711-1.965L68.231,91.9l-1.706,1.963Z" fill="#232639"/><path d="M68.231,84.854l1.711-1.965-1.711-1.963-1.706,1.963Z" fill="#232639"/><path d="M68.231,73.882l1.711-1.964-1.711-1.964-1.706,1.964Z" fill="#232639"/><path d="M68.231,62.909l1.711-1.964-1.711-1.964-1.706,1.964Z" fill="#232639"/><path d="M77.711,205.342l1.705-1.964-1.705-1.963-1.705,1.963Z" fill="#232639"/><path d="M88.967,203.378l-1.705-1.964-1.705,1.964,1.705,1.964Z" fill="#232639"/><path d="M96.805,201.414,95.1,203.378l1.166,1.341c.4-.046.808-.09,1.2-.136l1.049-1.2Z" fill="#232639"/><path d="M106.354,201.414l-1.7,1.964.106.121q1.473-.259,2.935-.553Z" fill="#232639"/><path d="M49.137,201.414l-.622.718c.509.115,1.021.222,1.533.332Z" fill="#232639"/><path d="M58.684,201.414l-1.7,1.964.4.46q1.152.185,2.31.352l.707-.808Z" fill="#232639"/><path d="M68.231,201.414l-1.706,1.964,1.534,1.762.326.03,1.561-1.795Z" fill="#232639"/></g></g></g><g transform="translate(-85 18)"><path d="M87.032,1.028H63.015L42,20.542v94.567l64.546-64.546V20.542Z" transform="translate(676.483 174.891)" fill="#feda33"/><path d="M63.4,1.028H85.531l21.015,19.514v94.567L45.425,49.817V17.551Z" transform="translate(611.938 174.891)" fill="#0366c7"/><path d="M83.438,0h0l24.137.042a1,1,0,0,1,.705.293L127.8,19.849a1,1,0,0,1,.293.707V50.577a1,1,0,0,1-.293.707L63.251,115.83a1,1,0,0,1-.707.293,1.161,1.161,0,0,1-.9-.49l-.521-.542c-.454-.473-1.117-1.167-1.961-2.05-1.6-1.673-3.947-4.134-6.98-7.312-5.107-5.354-12.224-12.819-21.153-22.188C15.824,67.588.43,51.428.276,51.267A1,1,0,0,1,0,50.577V17.554a1,1,0,0,1,.324-.737L18.337.3a.991.991,0,0,1,.679-.263L42.368.108A1,1,0,0,1,43.06.39l19.422,18.8L82.756.269A1,1,0,0,1,83.438,0Zm23.722,2.041L83.832,2,63.152,21.3a1,1,0,0,1-1.378-.013L41.959,2.107,19.4,2.043,2,17.994V50.177c4.191,4.4,54.08,56.767,60.556,63.519l63.534-63.534V20.97Z" transform="translate(655.94 174.877)" fill="#202231"/><path d="M0,95.567a1,1,0,0,1-1-1V0A1,1,0,0,1,0-1,1,1,0,0,1,1,0V94.567A1,1,0,0,1,0,95.567Z" transform="translate(718.483 195.433)" fill="#202231"/></g></g></svg>